<?xml version="1.0" encoding="UTF-8" ?>
<!DOCTYPE svg PUBLIC "-//W3C//DTD SVG 1.1//EN" "http://www.w3.org/Graphics/SVG/1.1/DTD/svg11.dtd">
<svg width="100%" height="100%" viewBox="0 0 128 128" version="1.1" xmlns="http://www.w3.org/2000/svg">
<g id="#003399fe">
<path fill="#003399" opacity="1.00" d=" M 100.15 3.38 C 102.14 2.67 104.18 2.15 106.25 1.74 C 106.83 11.77 106.32 21.83 106.53 31.87 C 105.52 31.56 104.51 31.25 103.51 30.93 C 103.49 22.44 103.50 13.94 103.50 5.45 C 90.46 9.84 77.52 14.57 64.39 18.68 C 64.06 18.70 63.39 18.73 63.05 18.75 C 62.97 43.84 62.94 68.93 63.07 94.03 C 47.66 99.34 32.21 104.59 16.73 109.71 C 14.37 110.44 12.03 111.45 9.50 111.30 C 9.59 85.53 9.29 59.76 9.66 34.00 C 13.69 32.64 17.72 31.29 21.76 29.94 C 34.54 25.54 47.42 21.41 60.21 17.03 C 73.54 12.53 86.83 7.93 100.15 3.38 M 12.53 36.27 C 12.48 60.14 12.49 84.00 12.52 107.87 C 28.54 102.58 44.48 97.08 60.50 91.79 C 60.30 67.95 60.38 44.10 60.39 20.26 C 44.40 25.50 28.49 30.97 12.53 36.27 Z" />
<path fill="#003399" opacity="1.00" d=" M 27.57 43.31 C 31.80 44.58 35.69 42.01 39.82 41.60 C 41.64 42.04 41.89 44.53 40.77 45.77 C 38.76 48.35 35.19 49.45 32.02 49.06 C 29.39 48.31 28.07 45.81 27.57 43.31 Z" />
<path fill="#003399" opacity="1.00" d=" M 21.21 56.66 C 30.98 54.69 40.30 51.02 49.31 46.85 C 49.73 48.48 49.56 50.18 48.73 51.66 C 46.33 56.94 43.54 62.05 40.44 66.95 C 45.22 68.99 49.98 71.10 54.83 72.96 C 55.15 74.61 55.45 76.26 55.71 77.91 C 49.51 76.39 44.16 72.72 39.31 68.71 C 34.61 75.44 29.80 82.22 23.84 87.90 C 22.66 89.26 20.74 89.05 19.13 89.19 C 23.88 83.50 28.62 77.79 32.73 71.61 C 36.75 66.32 39.27 60.14 42.39 54.32 C 38.42 55.51 34.48 56.79 30.47 57.83 C 30.20 58.37 29.66 59.46 29.40 60.01 C 26.21 61.20 21.54 61.00 21.21 56.66 Z" />
<path fill="#003399" opacity="1.00" d=" M 85.42 111.17 C 89.11 111.47 92.79 111.76 96.47 112.07 C 95.24 115.68 94.00 119.30 92.69 122.88 C 91.73 121.54 90.78 120.19 89.86 118.82 C 72.31 130.18 48.14 129.74 30.98 117.89 C 31.19 117.25 31.60 115.97 31.81 115.33 C 39.32 119.45 47.30 123.03 55.92 123.90 C 67.19 125.32 78.81 122.20 88.31 116.08 C 87.34 114.45 86.38 112.81 85.42 111.17 Z" />
</g>
<g id="#0066ccff">
<path fill="#0066cc" opacity="1.00" d=" M 21.73 3.34 C 34.58 7.85 47.39 12.44 60.21 17.03 C 47.42 21.41 34.54 25.54 21.76 29.94 C 21.73 21.08 21.78 12.21 21.73 3.34 Z" />
<path fill="#0066cc" opacity="1.00" d=" M 63.05 18.75 C 63.39 18.73 64.06 18.70 64.39 18.68 C 77.49 22.57 90.47 26.85 103.51 30.93 C 104.51 31.25 105.52 31.56 106.53 31.87 C 110.18 33.00 113.83 34.15 117.48 35.30 C 117.52 60.58 117.50 85.86 117.49 111.15 C 99.35 105.45 81.22 99.70 63.07 94.03 C 62.94 68.93 62.97 43.84 63.05 18.75 M 86.25 39.98 C 81.20 52.55 76.05 65.08 71.05 77.68 C 73.51 78.41 75.97 79.15 78.43 79.90 C 79.51 77.36 80.56 74.82 81.57 72.26 C 86.44 73.73 91.31 75.17 96.15 76.74 C 96.96 79.87 97.82 82.99 98.68 86.12 C 101.15 86.86 103.62 87.62 106.10 88.36 C 101.95 72.97 97.59 57.64 93.48 42.25 C 91.08 41.45 88.66 40.71 86.25 39.98 Z" />
<path fill="#0066cc" opacity="1.00" d=" M 84.46 65.08 C 86.13 60.99 87.81 56.90 89.50 52.81 C 90.94 57.85 92.29 62.91 93.73 67.94 C 90.65 66.96 87.56 66.01 84.46 65.08 Z" />
</g>
<g id="#ffffffff">
<path fill="#ffffff" opacity="1.00" d=" M 64.39 18.68 C 77.52 14.57 90.46 9.84 103.50 5.45 C 103.50 13.94 103.49 22.44 103.51 30.93 C 90.47 26.85 77.49 22.57 64.39 18.68 Z" />
<path fill="#ffffff" opacity="1.00" d=" M 12.53 36.27 C 28.49 30.97 44.40 25.50 60.39 20.26 C 60.38 44.10 60.30 67.95 60.50 91.79 C 44.48 97.08 28.54 102.58 12.52 107.87 C 12.49 84.00 12.48 60.14 12.53 36.27 M 27.57 43.31 C 28.07 45.81 29.39 48.31 32.02 49.06 C 35.19 49.45 38.76 48.35 40.77 45.77 C 41.89 44.53 41.64 42.04 39.82 41.60 C 35.69 42.01 31.80 44.58 27.57 43.31 M 21.21 56.66 C 21.54 61.00 26.21 61.20 29.40 60.01 C 29.66 59.46 30.20 58.37 30.47 57.83 C 34.48 56.79 38.42 55.51 42.39 54.32 C 39.27 60.14 36.75 66.32 32.73 71.61 C 28.62 77.79 23.88 83.50 19.13 89.19 C 20.74 89.05 22.66 89.26 23.84 87.90 C 29.80 82.22 34.61 75.44 39.31 68.71 C 44.16 72.72 49.51 76.39 55.71 77.91 C 55.45 76.26 55.15 74.61 54.83 72.96 C 49.98 71.10 45.22 68.99 40.44 66.95 C 43.54 62.05 46.33 56.94 48.73 51.66 C 49.56 50.18 49.73 48.48 49.31 46.85 C 40.30 51.02 30.98 54.69 21.21 56.66 Z" />
<path fill="#ffffff" opacity="1.00" d=" M 86.25 39.98 C 88.66 40.71 91.08 41.45 93.48 42.25 C 97.59 57.64 101.95 72.97 106.10 88.36 C 103.62 87.62 101.15 86.86 98.68 86.12 C 97.82 82.99 96.96 79.87 96.15 76.74 C 91.31 75.17 86.44 73.73 81.57 72.26 C 80.56 74.82 79.51 77.36 78.43 79.90 C 75.97 79.15 73.51 78.41 71.05 77.68 C 76.05 65.08 81.20 52.55 86.25 39.98 M 84.46 65.08 C 87.56 66.01 90.65 66.96 93.73 67.94 C 92.29 62.91 90.94 57.85 89.50 52.81 C 87.81 56.90 86.13 60.99 84.46 65.08 Z" />
</g>
</svg>
