<?xml version="1.0" encoding="UTF-8" standalone="no"?>
<svg width="125px" height="36px" viewBox="0 0 125 36" version="1.1" xmlns="http://www.w3.org/2000/svg" xmlns:xlink="http://www.w3.org/1999/xlink" xmlns:sketch="http://www.bohemiancoding.com/sketch/ns">
    <defs></defs>
    <g id="Page-1" stroke="none" stroke-width="1" fill="none" fill-rule="evenodd" sketch:type="MSPage">
        <g id="Artboard" sketch:type="MSArtboardGroup">
            <g id="Imported-Layers" sketch:type="MSLayerGroup">
                <path d="M45.21,1.869 L49.124,1.869 C52.666,1.869 54.979,3.971 54.979,7.594 C54.979,11.217 52.666,13.352 49.124,13.352 L45.21,13.352 L45.21,1.869 L45.21,1.869 Z M49.011,11.557 C51.34,11.557 52.828,10.182 52.828,7.594 C52.828,5.039 51.308,3.664 49.011,3.664 L47.297,3.664 L47.297,11.557 L49.011,11.557 L49.011,11.557 Z" id="Fill-1" fill="#FFFFFF" sketch:type="MSShapeGroup"></path>
                <path d="M56.467,5.103 L58.44,5.103 L58.44,6.559 C58.44,6.866 58.408,7.125 58.408,7.125 L58.44,7.125 C58.812,5.961 59.815,4.99 61.06,4.99 C61.19,4.99 61.319,5.006 61.448,5.022 L61.448,7.044 C61.367,7.028 61.125,7.012 60.947,7.012 C59.265,7.012 58.521,8.467 58.521,10.02 L58.521,13.352 L56.467,13.352 L56.467,5.103" id="Fill-2" fill="#FFFFFF" sketch:type="MSShapeGroup"></path>
                <path d="M62.904,1.869 L64.958,1.869 L64.958,3.697 L62.904,3.697 L62.904,1.869 Z M62.904,5.103 L64.958,5.103 L64.958,13.352 L62.904,13.352 L62.904,5.103 Z" id="Fill-3" fill="#FFFFFF" sketch:type="MSShapeGroup"></path>
                <path d="M66.021,5.103 L68.189,5.103 L69.903,10.214 C70.049,10.699 70.194,11.46 70.194,11.46 L70.227,11.46 C70.227,11.46 70.372,10.699 70.518,10.214 L72.232,5.103 L74.399,5.103 L71.439,13.352 L69.014,13.352 L66.021,5.103" id="Fill-4" fill="#FFFFFF" sketch:type="MSShapeGroup"></path>
                <path d="M78.945,4.909 C81.307,4.909 82.601,6.64 82.601,8.823 C82.601,9.082 82.568,9.357 82.536,9.616 L76.859,9.616 C76.988,11.055 78.088,11.799 79.334,11.799 C80.174,11.799 81.032,11.427 81.695,10.894 L82.503,12.365 C81.663,13.109 80.369,13.546 79.188,13.546 C76.455,13.546 74.74,11.572 74.74,9.228 C74.74,6.688 76.471,4.909 78.945,4.909 L78.945,4.909 Z M80.547,8.208 C80.531,7.109 79.819,6.462 78.897,6.462 C77.845,6.462 77.102,7.157 76.908,8.208 L80.547,8.208 L80.547,8.208 Z" id="Fill-5" fill="#FFFFFF" sketch:type="MSShapeGroup"></path>
                <path d="M84.24,5.103 L86.214,5.103 L86.214,6.559 C86.214,6.866 86.181,7.125 86.181,7.125 L86.214,7.125 C86.585,5.961 87.588,4.99 88.834,4.99 C88.963,4.99 89.092,5.006 89.222,5.022 L89.222,7.044 C89.141,7.028 88.898,7.012 88.72,7.012 C87.038,7.012 86.294,8.467 86.294,10.02 L86.294,13.352 L84.24,13.352 L84.24,5.103" id="Fill-6" fill="#FFFFFF" sketch:type="MSShapeGroup"></path>
                <path d="M90.535,1.869 L94.966,1.869 C97.117,1.869 98.621,3.373 98.621,5.605 C98.621,7.837 97.117,9.389 94.966,9.389 L92.621,9.389 L92.621,13.352 L90.535,13.352 L90.535,1.869 L90.535,1.869 Z M94.578,7.578 C95.791,7.578 96.503,6.802 96.503,5.605 C96.503,4.424 95.791,3.664 94.61,3.664 L92.621,3.664 L92.621,7.578 L94.578,7.578 L94.578,7.578 Z" id="Fill-7" fill="#FFFFFF" sketch:type="MSShapeGroup"></path>
                <path d="M104.097,8.176 L104.453,8.176 L104.453,8.063 C104.453,6.979 103.758,6.607 102.9,6.607 C102.092,6.607 101.267,6.947 100.604,7.4 L99.844,5.928 C100.523,5.378 101.849,4.909 103.078,4.909 C105.229,4.909 106.507,6.106 106.507,8.193 L106.507,13.352 L104.599,13.352 L104.599,12.656 C104.599,12.317 104.647,12.058 104.647,12.058 L104.615,12.058 C104.114,12.931 103.127,13.546 102.011,13.546 C100.523,13.546 99.294,12.575 99.294,11.071 C99.294,8.597 102.27,8.176 104.097,8.176 L104.097,8.176 Z M102.577,11.977 C103.725,11.977 104.469,10.812 104.469,9.81 L104.469,9.583 L104.114,9.583 C103.078,9.583 101.332,9.729 101.332,10.894 C101.332,11.443 101.752,11.977 102.577,11.977 L102.577,11.977 Z" id="Fill-8" fill="#FFFFFF" sketch:type="MSShapeGroup"></path>
                <path d="M112.464,4.909 C113.579,4.909 114.841,5.281 115.634,6.138 L114.712,7.545 C114.194,7.028 113.385,6.656 112.577,6.656 C111.056,6.656 110.07,7.804 110.07,9.211 C110.07,10.602 111.056,11.799 112.641,11.799 C113.515,11.799 114.453,11.346 115.068,10.748 L115.86,12.203 C115.084,13.028 113.79,13.546 112.464,13.546 C109.73,13.546 107.983,11.621 107.983,9.228 C107.983,6.882 109.73,4.909 112.464,4.909" id="Fill-9" fill="#FFFFFF" sketch:type="MSShapeGroup"></path>
                <path d="M117.145,1.869 L119.199,1.869 L119.199,8.014 L120.218,8.014 L122.207,5.103 L124.488,5.103 L121.884,8.791 L121.884,8.823 L124.811,13.352 L122.45,13.352 L120.266,9.745 L119.199,9.745 L119.199,13.352 L117.145,13.352 L117.145,1.869" id="Fill-10" fill="#FFFFFF" sketch:type="MSShapeGroup"></path>
                <path d="M44.467,30.29 L44.806,29.918 C44.871,29.983 44.935,30.08 45.34,30.403 C45.873,30.808 46.731,31.293 47.863,31.293 C48.688,31.293 49.351,31.066 49.884,30.614 C50.418,30.161 50.693,29.562 50.693,28.818 C50.693,28.188 50.451,27.637 50.143,27.314 C49.998,27.136 49.788,26.974 49.512,26.797 C49.237,26.619 49.011,26.49 48.817,26.408 L47.992,26.052 L47.442,25.842 L46.941,25.632 C46.666,25.519 46.488,25.422 46.407,25.373 L45.954,25.114 C45.55,24.856 45.469,24.726 45.194,24.419 C44.822,23.966 44.758,23.513 44.693,22.818 C44.693,22.058 45,21.411 45.631,20.861 C46.262,20.295 47.054,20.02 48.041,20.02 C49.092,20.02 50.143,20.456 50.58,20.796 L50.887,21.071 L50.628,21.443 C50.547,21.362 50.451,21.281 50.305,21.168 C50.16,21.055 49.868,20.909 49.415,20.731 C48.963,20.553 48.51,20.456 48.041,20.456 C47.183,20.456 46.472,20.699 45.938,21.168 C45.404,21.637 45.129,22.187 45.129,22.818 C45.178,23.578 45.34,24.015 45.841,24.468 C46.229,24.775 46.31,24.872 46.876,25.131 L47.459,25.373 L48.105,25.632 C48.477,25.777 48.785,25.907 49.011,26.02 C49.237,26.117 49.496,26.263 49.803,26.457 C50.645,26.991 51.065,27.654 51.13,28.818 C51.13,29.659 50.839,30.355 50.24,30.904 C49.658,31.455 48.865,31.729 47.863,31.729 C46.213,31.729 45,30.824 44.612,30.435 L44.467,30.29" id="Fill-11" fill="#FFFFFF" sketch:type="MSShapeGroup"></path>
                <path d="M53.407,30.5 C52.614,29.675 52.21,28.657 52.21,27.443 C52.21,26.263 52.614,25.276 53.407,24.468 C54.199,23.659 55.186,23.254 56.35,23.254 C57.531,23.254 58.518,23.659 59.31,24.468 C60.103,25.26 60.507,26.263 60.507,27.443 C60.507,28.657 60.103,29.675 59.31,30.5 C58.518,31.325 57.531,31.729 56.35,31.729 C55.186,31.729 54.199,31.325 53.407,30.5 L53.407,30.5 Z M58.986,30.209 C59.714,29.481 60.07,28.56 60.07,27.443 C60.07,26.36 59.714,25.454 58.986,24.759 C58.275,24.047 57.401,23.691 56.35,23.691 C55.315,23.691 54.442,24.047 53.714,24.759 C53.002,25.454 52.647,26.36 52.647,27.443 C52.647,28.56 53.002,29.481 53.714,30.209 C54.442,30.937 55.315,31.293 56.35,31.293 C57.401,31.293 58.275,30.937 58.986,30.209 L58.986,30.209 Z" id="Fill-12" fill="#FFFFFF" sketch:type="MSShapeGroup"></path>
                <path d="M62.082,20.214 L62.518,20.214 L62.518,30.015 C62.518,30.775 62.826,31.163 63.424,31.163 L63.667,31.131 L63.667,31.567 C63.57,31.584 63.473,31.6 63.376,31.6 C63.004,31.6 62.082,31.455 62.082,30.096 L62.082,20.214" id="Fill-13" fill="#FFFFFF" sketch:type="MSShapeGroup"></path>
                <path d="M64.687,23.449 L65.124,23.449 L65.124,28.56 C65.124,29.287 65.221,29.805 65.496,30.387 C65.771,30.969 66.385,31.293 67.291,31.293 C69.038,31.293 70.299,30.177 70.704,28.689 C70.784,28.381 70.833,28.026 70.833,27.589 L70.833,23.449 L71.27,23.449 L71.27,31.535 L70.833,31.535 L70.833,29.966 L70.914,29.336 L70.881,29.336 C70.704,29.789 70.412,30.241 69.846,30.808 C69.312,31.341 68.374,31.729 67.291,31.729 C65.56,31.729 64.687,30.727 64.687,28.705 L64.687,23.449" id="Fill-14" fill="#FFFFFF" sketch:type="MSShapeGroup"></path>
                <path d="M73.543,23.885 L72.476,23.885 L72.476,23.449 L73.543,23.449 L73.543,21.201 L73.98,21.201 L73.98,23.449 L76.099,23.449 L76.099,23.885 L73.98,23.885 L73.98,28.56 C73.98,30.808 75.209,31.163 75.888,31.163 L76.228,31.131 L76.228,31.567 C76.147,31.584 76.034,31.6 75.905,31.6 C75.435,31.6 75.015,31.503 74.449,31.131 C73.915,30.743 73.543,29.853 73.543,28.608 L73.543,23.885" id="Fill-15" fill="#FFFFFF" sketch:type="MSShapeGroup"></path>
                <path d="M77.273,20.166 L77.71,20.166 L77.71,21.702 L77.273,21.702 L77.273,20.166 Z M77.273,23.449 L77.71,23.449 L77.71,31.536 L77.273,31.536 L77.273,23.449 Z" id="Fill-16" fill="#FFFFFF" sketch:type="MSShapeGroup"></path>
                <path d="M80.467,30.5 C79.674,29.675 79.27,28.657 79.27,27.443 C79.27,26.263 79.674,25.276 80.467,24.468 C81.259,23.659 82.246,23.254 83.41,23.254 C84.591,23.254 85.578,23.659 86.37,24.468 C87.162,25.26 87.567,26.263 87.567,27.443 C87.567,28.657 87.162,29.675 86.37,30.5 C85.578,31.325 84.591,31.729 83.41,31.729 C82.246,31.729 81.259,31.325 80.467,30.5 L80.467,30.5 Z M86.047,30.209 C86.774,29.481 87.13,28.56 87.13,27.443 C87.13,26.36 86.774,25.454 86.047,24.759 C85.335,24.047 84.461,23.691 83.41,23.691 C82.375,23.691 81.502,24.047 80.774,24.759 C80.062,25.454 79.706,26.36 79.706,27.443 C79.706,28.56 80.062,29.481 80.774,30.209 C81.502,30.937 82.375,31.293 83.41,31.293 C84.461,31.293 85.335,30.937 86.047,30.209 L86.047,30.209 Z" id="Fill-17" fill="#FFFFFF" sketch:type="MSShapeGroup"></path>
                <path d="M89.134,31.535 L89.134,23.449 L89.57,23.449 L89.57,25.017 L89.489,25.632 L89.522,25.632 C89.716,25.131 89.991,24.678 90.524,24.16 C91.058,23.626 91.98,23.254 93.032,23.254 C94.988,23.254 95.797,24.322 95.797,26.473 L95.797,31.535 L95.361,31.535 L95.361,26.57 C95.361,24.742 94.843,23.691 93.032,23.691 C91.301,23.691 90.088,24.791 89.7,26.279 C89.619,26.587 89.57,26.942 89.57,27.379 L89.57,31.535 L89.134,31.535" id="Fill-18" fill="#FFFFFF" sketch:type="MSShapeGroup"></path>
                <path d="M19.248,8.231 C17.002,5.167 14.371,2.793 11.83,1.508 C11.613,1.399 11.356,1.391 11.132,1.485 C5.164,3.995 0.165,10.028 0.318,18.296 C0.331,19.011 1.175,19.393 1.718,18.929 C6.289,15.019 12.832,11.629 18.839,9.533 C19.377,9.346 19.584,8.691 19.248,8.231" id="Fill-19" fill="#0871B7" sketch:type="MSShapeGroup"></path>
                <path d="M24.073,8.009 C26.509,7.454 28.685,7.205 30.378,7.33 C31.148,7.387 31.603,6.484 31.085,5.913 C27.855,2.355 23.197,0.116 18.013,0.107 L17.995,0.107 C17.166,0.106 16.838,1.16 17.498,1.647 C19.528,3.146 21.484,5.211 23.185,7.658 C23.384,7.944 23.733,8.086 24.073,8.009" id="Fill-20" fill="#C9392B" sketch:type="MSShapeGroup"></path>
                <path d="M33.919,10.812 C32.226,10.275 29.839,10.552 26.558,11.422 C26.048,11.557 25.788,12.121 26.009,12.6 C28.475,17.94 29.65,24.22 28.337,30.226 C28.162,31.027 29.125,31.578 29.738,31.034 C33.374,27.8 35.67,23.09 35.68,17.841 C35.684,15.533 35.246,13.328 34.447,11.304 C34.354,11.07 34.16,10.889 33.919,10.812" id="Fill-21" fill="#2DA851" sketch:type="MSShapeGroup"></path>
                <path d="M2.215,24.805 C2.026,25.065 1.995,25.409 2.144,25.693 C5.21,31.556 11.014,35.495 17.945,35.508 C19.597,35.511 21.195,35.286 22.713,34.866 C22.956,34.798 23.157,34.623 23.258,34.392 C26.35,27.365 25.28,19.759 22.377,13.53 C22.19,13.13 21.73,12.934 21.315,13.085 C13.587,15.896 5.652,20.074 2.215,24.805" id="Fill-22" fill="#F9B800" sketch:type="MSShapeGroup"></path>
            </g>
        </g>
    </g>
</svg>