<?xml version="1.0" encoding="UTF-8" ?>
<!DOCTYPE svg PUBLIC "-//W3C//DTD SVG 1.1//EN" "http://www.w3.org/Graphics/SVG/1.1/DTD/svg11.dtd">
<svg width="100%" height="100%" viewBox="30 43 444 434" version="1.1" xmlns="http://www.w3.org/2000/svg">
<g id="#00000019">
</g>
<g id="#ffe0b2ff">
<path fill="#ffe0b2" opacity="1.00" d=" M 32.00 40.00 C 61.33 40.00 90.67 40.00 120.00 40.00 C 120.04 69.35 120.01 98.70 120.02 128.05 C 90.67 127.93 61.33 128.04 31.98 128.00 C 31.99 98.67 31.96 69.33 32.00 40.00 Z" />
</g>
<g id="#ffc9c4ff">
<path fill="#ffc9c4" opacity="1.00" d=" M 235.57 71.49 C 236.48 70.43 237.73 72.23 238.68 72.51 C 263.17 86.70 287.70 100.80 312.19 114.98 C 297.49 140.37 282.85 165.80 268.17 191.21 C 244.21 177.37 220.22 163.57 196.27 149.69 C 194.81 148.84 193.27 148.14 191.74 147.45 C 206.35 122.13 221.01 96.84 235.57 71.49 Z" />
</g>
<g id="#00000023">
</g>
<g id="#ffcc80ff">
<path fill="#ffcc80" opacity="1.00" d=" M 31.98 128.00 C 61.33 128.04 90.67 127.93 120.02 128.05 C 120.02 157.36 120.02 186.67 120.02 215.98 C 90.67 216.07 61.33 215.91 31.98 216.03 C 31.98 186.68 31.98 157.34 31.98 128.00 Z" />
</g>
<g id="#ff8a80ff">
<path fill="#ff8a80" opacity="1.00" d=" M 146.20 226.34 C 161.36 200.03 176.56 173.75 191.74 147.45 C 193.27 148.14 194.81 148.84 196.27 149.69 C 220.22 163.57 244.21 177.37 268.17 191.21 C 253.51 216.58 238.87 241.96 224.22 267.34 C 199.11 253.16 174.31 238.43 149.21 224.24 C 148.19 224.92 147.17 225.60 146.20 226.34 Z" />
</g>
<g id="#e1bee7ff">
<path fill="#e1bee7" opacity="1.00" d=" M 394.21 201.41 C 395.11 200.82 396.06 200.33 397.05 199.93 L 397.40 200.50 C 411.97 225.67 426.52 250.86 441.03 276.07 C 440.03 276.65 439.03 277.23 438.04 277.81 C 413.66 291.84 389.33 305.93 364.97 319.98 C 349.76 294.87 335.76 269.03 320.56 243.91 C 345.14 229.80 369.68 215.60 394.21 201.41 Z" />
</g>
<g id="#ffb74dff">
<path fill="#ffb74d" opacity="1.00" d=" M 31.98 216.03 C 61.33 215.91 90.67 216.07 120.02 215.98 C 120.06 234.54 119.95 253.10 120.10 271.66 C 119.83 282.43 120.07 293.22 119.98 304.00 C 90.64 304.03 61.31 303.93 31.98 304.05 C 31.98 274.71 31.97 245.37 31.98 216.03 Z" />
</g>
<g id="#ff5252ff">
<path fill="#ff5252" opacity="1.00" d=" M 149.21 224.24 C 174.31 238.43 199.11 253.16 224.22 267.34 C 214.85 283.58 205.46 299.81 196.10 316.06 C 195.56 316.95 195.03 317.84 194.50 318.74 C 189.60 326.91 185.13 335.33 180.25 343.51 C 160.03 332.19 140.02 320.46 120.01 308.77 C 120.00 307.18 119.98 305.59 119.98 304.00 C 120.07 293.22 119.83 282.43 120.10 271.66 C 128.68 256.48 137.50 241.45 146.20 226.34 C 147.17 225.60 148.19 224.92 149.21 224.24 Z" />
</g>
<g id="#ce93d8ff">
<path fill="#ce93d8" opacity="1.00" d=" M 222.62 300.55 C 255.24 281.63 287.92 262.80 320.56 243.91 C 335.76 269.03 349.76 294.87 364.97 319.98 C 339.64 334.58 314.33 349.22 289.01 363.83 C 286.05 360.33 284.04 356.19 281.75 352.26 C 271.25 334.09 260.78 315.90 250.25 297.74 C 248.61 295.01 247.40 291.94 245.11 289.67 C 228.03 298.99 211.60 309.46 194.50 318.74 C 195.03 317.84 195.56 316.95 196.10 316.06 C 204.77 310.61 213.81 305.77 222.62 300.55 Z" />
</g>
<g id="#00000037">
</g>
<g id="#ba68c8ff">
<path fill="#ba68c8" opacity="1.00" d=" M 194.50 318.74 C 211.60 309.46 228.03 298.99 245.11 289.67 C 247.40 291.94 248.61 295.01 250.25 297.74 C 260.78 315.90 271.25 334.09 281.75 352.26 C 284.04 356.19 286.05 360.33 289.01 363.83 C 272.77 373.25 256.47 382.54 240.27 392.01 C 239.41 392.49 238.56 393.01 237.71 393.52 C 234.64 395.29 231.51 396.97 228.55 398.93 L 227.99 399.25 C 224.08 401.34 220.22 403.49 216.50 405.89 L 215.93 406.23 C 215.57 406.43 214.85 406.83 214.49 407.03 L 213.97 407.29 C 213.81 407.38 213.50 407.55 213.34 407.63 L 212.39 408.13 C 200.95 387.96 188.94 368.12 177.80 347.79 C 178.62 346.36 179.43 344.93 180.25 343.51 C 185.13 335.33 189.60 326.91 194.50 318.74 Z" />
</g>
<g id="#ffa726ff">
<path fill="#ffa726" opacity="1.00" d=" M 31.98 304.05 C 61.31 303.93 90.64 304.03 119.98 304.00 C 119.98 305.59 120.00 307.18 120.01 308.77 C 119.98 336.49 120.01 364.21 120.00 391.93 C 90.66 392.10 61.32 391.95 31.98 391.99 C 31.98 362.68 31.97 333.36 31.98 304.05 Z" />
</g>
<g id="#ff1744ff">
<path fill="#ff1744" opacity="1.00" d=" M 120.01 308.77 C 140.02 320.46 160.03 332.19 180.25 343.51 C 179.43 344.93 178.62 346.36 177.80 347.79 C 163.87 371.87 149.95 395.96 136.06 420.07 C 130.62 417.05 125.48 413.53 120.00 410.59 C 120.00 404.37 120.02 398.15 120.00 391.93 C 120.01 364.21 119.98 336.49 120.01 308.77 Z" />
</g>
<g id="#ab47bcff">
<path fill="#ab47bc" opacity="1.00" d=" M 136.06 420.07 C 149.95 395.96 163.87 371.87 177.80 347.79 C 188.94 368.12 200.95 387.96 212.39 408.13 C 211.43 408.68 210.50 409.28 209.59 409.91 L 209.05 410.22 C 208.70 410.41 207.99 410.79 207.64 410.98 C 207.44 411.10 207.03 411.35 206.82 411.47 L 205.78 412.12 C 205.58 412.26 205.20 412.53 205.00 412.67 C 204.50 412.98 203.51 413.61 203.01 413.92 L 202.03 413.90 C 201.70 414.25 201.02 414.96 200.69 415.31 C 200.59 415.38 200.39 415.53 200.29 415.61 C 199.71 415.93 198.54 416.57 197.95 416.89 C 197.47 417.16 196.51 417.72 196.03 417.99 L 194.98 417.95 C 194.64 418.31 193.96 419.04 193.63 419.40 C 193.56 419.44 193.44 419.53 193.38 419.58 C 192.77 419.90 191.56 420.53 190.95 420.84 C 190.48 421.17 189.54 421.81 189.08 422.14 C 188.48 422.41 187.28 422.95 186.68 423.22 C 186.58 423.35 186.40 423.62 186.30 423.76 C 185.72 424.06 184.55 424.65 183.97 424.95 C 183.41 425.23 182.29 425.79 181.73 426.07 C 181.54 426.17 181.15 426.36 180.96 426.46 L 179.81 427.09 C 179.61 427.23 179.20 427.51 179.00 427.65 C 178.52 428.00 177.57 428.70 177.10 429.05 L 176.06 428.91 C 175.70 429.27 174.98 429.99 174.63 430.35 C 174.56 430.41 174.41 430.53 174.34 430.60 C 173.74 430.93 172.54 431.61 171.93 431.95 L 171.14 431.75 C 170.87 432.10 170.34 432.79 170.07 433.14 L 168.97 433.07 C 168.62 433.39 167.92 434.03 167.57 434.35 L 167.42 434.49 L 167.28 434.70 C 166.71 435.01 165.56 435.61 164.98 435.92 C 164.45 436.23 163.40 436.84 162.87 437.15 C 162.36 437.42 161.32 437.96 160.80 438.23 C 160.65 438.36 160.34 438.61 160.18 438.73 C 159.65 439.08 158.57 439.77 158.03 440.12 L 156.25 440.08 C 156.13 440.38 155.90 440.97 155.78 441.27 C 155.63 441.39 155.33 441.63 155.18 441.75 C 154.67 442.01 153.63 442.54 153.11 442.80 C 152.59 443.08 151.53 443.65 151.01 443.93 L 149.92 443.95 C 149.59 444.31 148.94 445.03 148.62 445.39 C 148.56 445.45 148.45 445.55 148.39 445.61 C 147.79 445.94 146.59 446.60 145.99 446.93 L 145.17 446.72 C 144.91 447.08 144.38 447.80 144.11 448.16 L 142.93 448.06 C 142.61 448.39 141.96 449.03 141.64 449.35 C 141.57 449.41 141.43 449.53 141.36 449.59 C 140.76 449.93 139.57 450.60 138.97 450.94 L 138.17 450.78 C 137.87 451.14 137.29 451.84 137.00 452.20 L 136.12 451.81 C 132.44 447.00 130.05 441.35 126.73 436.30 C 129.83 430.88 132.97 425.48 136.06 420.07 Z" />
</g>
<g id="#ff9800ff">
<path fill="#ff9800" opacity="1.00" d=" M 31.98 391.99 C 61.32 391.95 90.66 392.10 120.00 391.93 C 120.02 398.15 120.00 404.37 120.00 410.59 C 119.95 419.41 120.09 428.23 119.93 437.05 C 119.85 442.98 118.29 448.75 116.17 454.25 C 113.58 459.77 109.76 464.56 105.56 468.94 C 105.40 469.12 105.09 469.48 104.93 469.66 L 103.96 470.34 C 103.72 470.51 103.23 470.83 102.98 471.00 C 102.79 471.14 102.41 471.44 102.22 471.59 C 101.62 471.99 100.42 472.78 99.82 473.18 C 99.65 473.29 99.30 473.52 99.13 473.63 C 97.45 474.60 95.72 475.49 93.97 476.33 C 93.76 476.42 93.32 476.59 93.11 476.68 L 92.02 476.97 C 91.51 477.26 90.50 477.83 90.00 478.11 L 89.06 477.98 C 87.67 477.47 86.65 477.84 86.00 479.09 L 84.63 479.01 C 84.23 479.02 83.42 479.03 83.01 479.04 C 82.51 479.24 81.49 479.62 80.98 479.82 C 70.69 480.74 60.04 478.40 51.45 472.54 C 44.51 467.90 39.05 461.21 35.60 453.62 C 33.28 448.06 32.00 442.07 32.00 436.04 C 31.94 421.36 31.99 406.67 31.98 391.99 M 71.39 414.49 C 62.59 416.27 55.38 423.95 54.24 432.87 C 52.91 441.31 57.12 450.21 64.40 454.65 C 71.31 459.06 80.68 459.06 87.59 454.65 C 94.91 450.24 99.08 441.26 97.75 432.83 C 96.32 420.62 83.35 411.57 71.39 414.49 Z" />
</g>
<g id="#72cef8ff">
<path fill="#72cef8" opacity="1.00" d=" M 237.71 393.52 C 238.56 393.01 239.41 392.49 240.27 392.01 C 244.50 391.97 248.73 392.02 252.96 391.99 C 267.28 391.99 281.59 392.01 295.91 392.00 C 295.91 392.48 295.91 393.45 295.91 393.94 C 281.93 394.10 267.94 393.89 253.96 394.01 C 248.54 393.94 243.10 394.16 237.71 393.52 Z" />
<path fill="#72cef8" opacity="1.00" d=" M 213.34 407.63 C 213.50 407.55 213.81 407.38 213.97 407.29 L 213.86 407.59 L 213.34 407.63 Z" />
</g>
<g id="#81d4faff">
<path fill="#81d4fa" opacity="1.00" d=" M 295.91 392.00 C 325.19 392.00 354.48 392.00 383.76 392.00 C 384.28 421.32 383.89 450.67 383.98 480.01 C 354.66 480.01 325.34 480.01 296.02 480.01 C 295.92 451.32 296.09 422.62 295.91 393.94 C 295.91 393.45 295.91 392.48 295.91 392.00 Z" />
</g>
<g id="#b3e5fcff">
<path fill="#b3e5fc" opacity="1.00" d=" M 383.76 392.00 C 413.17 392.00 442.59 392.00 472.00 392.00 C 472.03 421.33 472.03 450.65 472.00 479.98 C 471.59 479.99 470.76 480.02 470.34 480.03 C 441.55 479.96 412.77 480.03 383.98 480.01 C 383.89 450.67 384.28 421.32 383.76 392.00 Z" />
</g>
<g id="#4fc3f7ff">
<path fill="#4fc3f7" opacity="1.00" d=" M 228.55 398.93 C 231.51 396.97 234.64 395.29 237.71 393.52 C 243.10 394.16 248.54 393.94 253.96 394.01 C 267.94 393.89 281.93 394.10 295.91 393.94 C 296.09 422.62 295.92 451.32 296.02 480.01 C 266.68 480.01 237.35 480.01 208.01 480.01 C 208.02 460.66 207.94 441.32 208.01 421.98 C 208.03 418.47 208.47 414.91 207.62 411.46 L 207.64 410.98 C 207.99 410.79 208.70 410.41 209.05 410.22 L 209.42 410.57 C 209.46 410.41 209.55 410.08 209.59 409.91 C 210.50 409.28 211.43 408.68 212.39 408.13 L 213.34 407.63 L 213.86 407.59 L 214.34 407.54 L 214.49 407.03 C 214.85 406.83 215.57 406.43 215.93 406.23 C 216.12 406.28 216.49 406.38 216.68 406.43 L 216.50 405.89 C 220.22 403.49 224.08 401.34 227.99 399.25 L 228.35 399.64 C 228.40 399.46 228.50 399.11 228.55 398.93 Z" />
</g>
<g id="#26a8e3ff">
<path fill="#26a8e3" opacity="1.00" d=" M 227.99 399.25 L 228.55 398.93 C 228.50 399.11 228.40 399.46 228.35 399.64 L 227.99 399.25 Z" />
<path fill="#26a8e3" opacity="1.00" d=" M 215.93 406.23 L 216.50 405.89 L 216.68 406.43 C 216.49 406.38 216.12 406.28 215.93 406.23 Z" />
<path fill="#26a8e3" opacity="1.00" d=" M 213.97 407.29 L 214.49 407.03 L 214.34 407.54 L 213.86 407.59 L 213.97 407.29 Z" />
<path fill="#26a8e3" opacity="1.00" d=" M 209.05 410.22 L 209.59 409.91 C 209.55 410.08 209.46 410.41 209.42 410.57 L 209.05 410.22 Z" />
</g>
<g id="#c80000ff">
<path fill="#c80000" opacity="1.00" d=" M 120.00 410.59 C 125.48 413.53 130.62 417.05 136.06 420.07 C 132.97 425.48 129.83 430.88 126.73 436.30 C 123.16 442.25 119.96 448.43 116.17 454.25 C 118.29 448.75 119.85 442.98 119.93 437.05 C 120.09 428.23 119.95 419.41 120.00 410.59 Z" />
</g>
<g id="#1092d1fd">
<path fill="#1092d1" opacity="1.00" d=" M 206.82 411.47 C 207.03 411.35 207.44 411.10 207.64 410.98 L 207.62 411.46 L 206.82 411.47 Z" />
<path fill="#1092d1" opacity="1.00" d=" M 205.00 412.67 C 205.20 412.53 205.58 412.26 205.78 412.12 C 205.58 412.26 205.20 412.53 205.00 412.67 Z" />
<path fill="#1092d1" opacity="1.00" d=" M 203.01 413.92 C 203.51 413.61 204.50 412.98 205.00 412.67 C 204.50 412.98 203.51 413.61 203.01 413.92 Z" />
<path fill="#1092d1" opacity="1.00" d=" M 200.69 415.31 C 201.02 414.96 201.70 414.25 202.03 413.90 L 203.01 413.92 C 202.43 414.27 201.27 414.96 200.69 415.31 Z" />
<path fill="#1092d1" opacity="1.00" d=" M 200.29 415.61 C 200.39 415.53 200.59 415.38 200.69 415.31 C 200.59 415.38 200.39 415.53 200.29 415.61 Z" />
<path fill="#1092d1" opacity="1.00" d=" M 197.95 416.89 C 198.54 416.57 199.71 415.93 200.29 415.61 C 199.96 415.94 199.29 416.60 198.95 416.93 L 197.95 416.89 Z" />
<path fill="#1092d1" opacity="1.00" d=" M 196.03 417.99 C 196.51 417.72 197.47 417.16 197.95 416.89 C 197.67 417.21 197.10 417.86 196.82 418.19 L 196.03 417.99 Z" />
<path fill="#1092d1" opacity="1.00" d=" M 193.63 419.40 C 193.96 419.04 194.64 418.31 194.98 417.95 L 196.03 417.99 C 195.43 418.34 194.23 419.05 193.63 419.40 Z" />
<path fill="#1092d1" opacity="1.00" d=" M 193.38 419.58 C 193.44 419.53 193.56 419.44 193.63 419.40 C 193.56 419.44 193.44 419.53 193.38 419.58 Z" />
<path fill="#1092d1" opacity="1.00" d=" M 190.95 420.84 C 191.56 420.53 192.77 419.90 193.38 419.58 C 193.04 419.92 192.37 420.60 192.03 420.94 L 190.95 420.84 Z" />
<path fill="#1092d1" opacity="1.00" d=" M 189.08 422.14 C 189.54 421.81 190.48 421.17 190.95 420.84 C 190.48 421.17 189.54 421.81 189.08 422.14 Z" />
<path fill="#1092d1" opacity="1.00" d=" M 186.68 423.22 C 187.28 422.95 188.48 422.41 189.08 422.14 C 188.48 422.41 187.28 422.95 186.68 423.22 Z" />
<path fill="#1092d1" opacity="1.00" d=" M 186.30 423.76 C 186.40 423.62 186.58 423.35 186.68 423.22 C 186.58 423.35 186.40 423.62 186.30 423.76 Z" />
<path fill="#1092d1" opacity="1.00" d=" M 183.97 424.95 C 184.55 424.65 185.72 424.06 186.30 423.76 C 185.72 424.06 184.55 424.65 183.97 424.95 Z" />
<path fill="#1092d1" opacity="1.00" d=" M 181.73 426.07 C 182.29 425.79 183.41 425.23 183.97 424.95 C 183.65 425.28 183.02 425.93 182.70 426.25 L 181.73 426.07 Z" />
<path fill="#1092d1" opacity="1.00" d=" M 180.96 426.46 C 181.15 426.36 181.54 426.17 181.73 426.07 C 181.54 426.17 181.15 426.36 180.96 426.46 Z" />
<path fill="#1092d1" opacity="1.00" d=" M 179.00 427.65 C 179.20 427.51 179.61 427.23 179.81 427.09 C 179.61 427.23 179.20 427.51 179.00 427.65 Z" />
<path fill="#1092d1" opacity="1.00" d=" M 177.10 429.05 C 177.57 428.70 178.52 428.00 179.00 427.65 C 178.52 428.00 177.57 428.70 177.10 429.05 Z" />
<path fill="#1092d1" opacity="1.00" d=" M 174.63 430.35 C 174.98 429.99 175.70 429.27 176.06 428.91 L 177.10 429.05 C 176.48 429.37 175.25 430.02 174.63 430.35 Z" />
<path fill="#1092d1" opacity="1.00" d=" M 174.34 430.60 C 174.41 430.53 174.56 430.41 174.63 430.35 C 174.56 430.41 174.41 430.53 174.34 430.60 Z" />
<path fill="#1092d1" opacity="1.00" d=" M 171.93 431.95 C 172.54 431.61 173.74 430.93 174.34 430.60 C 174.00 430.95 173.33 431.64 172.99 431.99 L 171.93 431.95 Z" />
<path fill="#1092d1" opacity="1.00" d=" M 170.07 433.14 C 170.34 432.79 170.87 432.10 171.14 431.75 L 171.93 431.95 C 171.47 432.25 170.53 432.84 170.07 433.14 Z" />
<path fill="#1092d1" opacity="1.00" d=" M 167.57 434.35 C 167.92 434.03 168.62 433.39 168.97 433.07 L 170.07 433.14 C 169.44 433.44 168.20 434.05 167.57 434.35 Z" />
<path fill="#1092d1" opacity="1.00" d=" M 167.42 434.49 L 167.57 434.35 C 167.50 434.44 167.36 434.62 167.28 434.70 L 167.42 434.49 Z" />
<path fill="#1092d1" opacity="1.00" d=" M 164.98 435.92 C 165.56 435.61 166.71 435.01 167.28 434.70 C 167.00 435.02 166.43 435.66 166.15 435.97 L 164.98 435.92 Z" />
<path fill="#1092d1" opacity="1.00" d=" M 162.87 437.15 C 163.40 436.84 164.45 436.23 164.98 435.92 L 164.64 436.76 C 164.20 436.86 163.32 437.05 162.87 437.15 Z" />
<path fill="#1092d1" opacity="1.00" d=" M 160.80 438.23 C 161.32 437.96 162.36 437.42 162.87 437.15 C 162.36 437.42 161.32 437.96 160.80 438.23 Z" />
<path fill="#1092d1" opacity="1.00" d=" M 160.18 438.73 C 160.34 438.61 160.65 438.36 160.80 438.23 C 160.65 438.36 160.34 438.61 160.18 438.73 Z" />
<path fill="#1092d1" opacity="1.00" d=" M 158.03 440.12 C 158.57 439.77 159.65 439.08 160.18 438.73 C 159.65 439.08 158.57 439.77 158.03 440.12 Z" />
<path fill="#1092d1" opacity="1.00" d=" M 155.78 441.27 C 155.90 440.97 156.13 440.38 156.25 440.08 L 158.03 440.12 C 157.47 440.41 156.34 440.98 155.78 441.27 Z" />
<path fill="#1092d1" opacity="1.00" d=" M 155.18 441.75 C 155.33 441.63 155.63 441.39 155.78 441.27 C 155.63 441.39 155.33 441.63 155.18 441.75 Z" />
<path fill="#1092d1" opacity="1.00" d=" M 153.11 442.80 C 153.63 442.54 154.67 442.01 155.18 441.75 C 154.67 442.01 153.63 442.54 153.11 442.80 Z" />
<path fill="#1092d1" opacity="1.00" d=" M 151.01 443.93 C 151.53 443.65 152.59 443.08 153.11 442.80 C 152.79 443.14 152.14 443.81 151.82 444.15 L 151.01 443.93 Z" />
<path fill="#1092d1" opacity="1.00" d=" M 148.62 445.39 C 148.94 445.03 149.59 444.31 149.92 443.95 L 151.01 443.93 C 150.41 444.29 149.22 445.03 148.62 445.39 Z" />
<path fill="#1092d1" opacity="1.00" d=" M 148.39 445.61 C 148.45 445.55 148.56 445.45 148.62 445.39 C 148.56 445.45 148.45 445.55 148.39 445.61 Z" />
<path fill="#1092d1" opacity="1.00" d=" M 145.99 446.93 C 146.59 446.60 147.79 445.94 148.39 445.61 C 148.06 445.93 147.40 446.57 147.06 446.89 L 145.99 446.93 Z" />
<path fill="#1092d1" opacity="1.00" d=" M 144.11 448.16 C 144.38 447.80 144.91 447.08 145.17 446.72 L 145.99 446.93 C 145.52 447.23 144.58 447.85 144.11 448.16 Z" />
<path fill="#1092d1" opacity="1.00" d=" M 141.64 449.35 C 141.96 449.03 142.61 448.39 142.93 448.06 L 144.11 448.16 C 143.49 448.46 142.26 449.05 141.64 449.35 Z" />
<path fill="#1092d1" opacity="1.00" d=" M 141.36 449.59 C 141.43 449.53 141.57 449.41 141.64 449.35 C 141.57 449.41 141.43 449.53 141.36 449.59 Z" />
<path fill="#1092d1" opacity="1.00" d=" M 138.97 450.94 C 139.57 450.60 140.76 449.93 141.36 449.59 C 141.03 449.93 140.37 450.63 140.04 450.97 L 138.97 450.94 Z" />
<path fill="#1092d1" opacity="1.00" d=" M 137.00 452.20 C 137.29 451.84 137.87 451.14 138.17 450.78 L 138.97 450.94 C 138.47 451.25 137.49 451.88 137.00 452.20 Z" />
<path fill="#1092d1" opacity="1.00" d=" M 134.90 453.16 C 135.21 452.82 135.82 452.15 136.12 451.81 L 137.00 452.20 C 136.47 452.44 135.42 452.92 134.90 453.16 Z" />
<path fill="#1092d1" opacity="1.00" d=" M 134.03 453.65 C 134.25 453.53 134.68 453.29 134.90 453.16 C 134.68 453.29 134.25 453.53 134.03 453.65 Z" />
<path fill="#1092d1" opacity="1.00" d=" M 131.80 455.16 C 132.36 454.78 133.47 454.03 134.03 453.65 C 133.47 454.03 132.36 454.78 131.80 455.16 Z" />
<path fill="#1092d1" opacity="1.00" d=" M 129.80 456.24 C 130.30 455.97 131.30 455.43 131.80 455.16 C 131.30 455.43 130.30 455.97 129.80 456.24 Z" />
<path fill="#1092d1" opacity="1.00" d=" M 129.18 456.73 C 129.34 456.61 129.65 456.36 129.80 456.24 C 129.65 456.36 129.34 456.61 129.18 456.73 Z" />
<path fill="#1092d1" opacity="1.00" d=" M 127.17 457.77 C 127.67 457.51 128.68 456.99 129.18 456.73 C 128.68 456.99 127.67 457.51 127.17 457.77 Z" />
<path fill="#1092d1" opacity="1.00" d=" M 125.01 458.97 C 125.55 458.67 126.63 458.07 127.17 457.77 C 126.63 458.07 125.55 458.67 125.01 458.97 Z" />
<path fill="#1092d1" opacity="1.00" d=" M 122.71 460.22 C 123.29 459.91 124.44 459.28 125.01 458.97 C 124.44 459.28 123.29 459.91 122.71 460.22 Z" />
<path fill="#1092d1" opacity="1.00" d=" M 122.46 460.47 L 122.71 460.22 C 122.61 460.35 122.41 460.62 122.31 460.76 L 122.46 460.47 Z" />
<path fill="#1092d1" opacity="1.00" d=" M 119.91 461.67 C 120.51 461.44 121.71 460.99 122.31 460.76 C 121.71 460.99 120.51 461.44 119.91 461.67 Z" />
</g>
<g id="#29b6f6ff">
<path fill="#29b6f6" opacity="1.00" d=" M 205.78 412.12 L 206.82 411.47 L 207.62 411.46 C 208.47 414.91 208.03 418.47 208.01 421.98 C 207.94 441.32 208.02 460.66 208.01 480.01 C 178.68 480.01 149.34 480.01 120.01 480.01 C 119.81 473.89 120.31 467.78 119.91 461.67 C 120.51 461.44 121.71 460.99 122.31 460.76 C 122.41 460.62 122.61 460.35 122.71 460.22 C 123.29 459.91 124.44 459.28 125.01 458.97 C 125.55 458.67 126.63 458.07 127.17 457.77 C 127.67 457.51 128.68 456.99 129.18 456.73 C 129.34 456.61 129.65 456.36 129.80 456.24 C 130.30 455.97 131.30 455.43 131.80 455.16 C 132.36 454.78 133.47 454.03 134.03 453.65 C 134.25 453.53 134.68 453.29 134.90 453.16 C 135.42 452.92 136.47 452.44 137.00 452.20 C 137.49 451.88 138.47 451.25 138.97 450.94 L 140.04 450.97 C 140.37 450.63 141.03 449.93 141.36 449.59 C 141.43 449.53 141.57 449.41 141.64 449.35 C 142.26 449.05 143.49 448.46 144.11 448.16 C 144.58 447.85 145.52 447.23 145.99 446.93 L 147.06 446.89 C 147.40 446.57 148.06 445.93 148.39 445.61 C 148.45 445.55 148.56 445.45 148.62 445.39 C 149.22 445.03 150.41 444.29 151.01 443.93 L 151.82 444.15 C 152.14 443.81 152.79 443.14 153.11 442.80 C 153.63 442.54 154.67 442.01 155.18 441.75 C 155.33 441.63 155.63 441.39 155.78 441.27 C 156.34 440.98 157.47 440.41 158.03 440.12 C 158.57 439.77 159.65 439.08 160.18 438.73 C 160.34 438.61 160.65 438.36 160.80 438.23 C 161.32 437.96 162.36 437.42 162.87 437.15 C 163.32 437.05 164.20 436.86 164.64 436.76 L 164.98 435.92 L 166.15 435.97 C 166.43 435.66 167.00 435.02 167.28 434.70 C 167.36 434.62 167.50 434.44 167.57 434.35 C 168.20 434.05 169.44 433.44 170.07 433.14 C 170.53 432.84 171.47 432.25 171.93 431.95 L 172.99 431.99 C 173.33 431.64 174.00 430.95 174.34 430.60 C 174.41 430.53 174.56 430.41 174.63 430.35 C 175.25 430.02 176.48 429.37 177.10 429.05 C 177.57 428.70 178.52 428.00 179.00 427.65 C 179.20 427.51 179.61 427.23 179.81 427.09 L 180.96 426.46 C 181.15 426.36 181.54 426.17 181.73 426.07 L 182.70 426.25 C 183.02 425.93 183.65 425.28 183.97 424.95 C 184.55 424.65 185.72 424.06 186.30 423.76 C 186.40 423.62 186.58 423.35 186.68 423.22 C 187.28 422.95 188.48 422.41 189.08 422.14 C 189.54 421.81 190.48 421.17 190.95 420.84 L 192.03 420.94 C 192.37 420.60 193.04 419.92 193.38 419.58 C 193.44 419.53 193.56 419.44 193.63 419.40 C 194.23 419.05 195.43 418.34 196.03 417.99 L 196.82 418.19 C 197.10 417.86 197.67 417.21 197.95 416.89 L 198.95 416.93 C 199.29 416.60 199.96 415.94 200.29 415.61 C 200.39 415.53 200.59 415.38 200.69 415.31 C 201.27 414.96 202.43 414.27 203.01 413.92 C 203.51 413.61 204.50 412.98 205.00 412.67 C 205.20 412.53 205.58 412.26 205.78 412.12 Z" />
<path fill="#29b6f6" opacity="1.00" d=" M 116.24 463.65 C 116.36 463.57 116.61 463.42 116.74 463.35 C 116.61 463.42 116.36 463.57 116.24 463.65 Z" />
</g>
<g id="#ffffffff">
</g>
<g id="#9c27b0ff">
<path fill="#9c27b0" opacity="1.00" d=" M 116.17 454.25 C 119.96 448.43 123.16 442.25 126.73 436.30 C 130.05 441.35 132.44 447.00 136.12 451.81 C 135.82 452.15 135.21 452.82 134.90 453.16 C 134.68 453.29 134.25 453.53 134.03 453.65 C 133.47 454.03 132.36 454.78 131.80 455.16 C 131.30 455.43 130.30 455.97 129.80 456.24 C 129.65 456.36 129.34 456.61 129.18 456.73 C 128.68 456.99 127.67 457.51 127.17 457.77 C 126.63 458.07 125.55 458.67 125.01 458.97 C 124.44 459.28 123.29 459.91 122.71 460.22 L 122.46 460.47 L 122.31 460.76 C 121.71 460.99 120.51 461.44 119.91 461.67 C 118.83 462.19 117.77 462.74 116.74 463.35 C 116.61 463.42 116.36 463.57 116.24 463.65 C 112.63 465.26 109.57 468.44 105.56 468.94 C 109.76 464.56 113.58 459.77 116.17 454.25 Z" />
<path fill="#9c27b0" opacity="1.00" d=" M 104.93 469.66 C 105.09 469.48 105.40 469.12 105.56 468.94 L 105.60 469.56 L 104.93 469.66 Z" />
</g>
<g id="#00000035">
</g>
<g id="#03a8f2ff">
<path fill="#03a8f2" opacity="1.00" d=" M 116.74 463.35 C 117.77 462.74 118.83 462.19 119.91 461.67 C 120.31 467.78 119.81 473.89 120.01 480.01 C 108.23 480.02 96.44 480.00 84.65 479.94 L 84.63 479.01 L 86.00 479.09 C 87.35 479.52 88.37 479.15 89.06 477.98 L 90.00 478.11 C 90.50 477.83 91.51 477.26 92.02 476.97 L 93.11 476.68 C 93.32 476.59 93.76 476.42 93.97 476.33 C 95.72 475.49 97.45 474.60 99.13 473.63 C 99.30 473.52 99.65 473.29 99.82 473.18 C 100.42 472.78 101.62 471.99 102.22 471.59 C 102.41 471.44 102.79 471.14 102.98 471.00 C 103.23 470.83 103.72 470.51 103.96 470.34 L 104.93 469.66 L 105.60 469.56 L 105.56 468.94 C 109.57 468.44 112.63 465.26 116.24 463.65 C 116.36 463.57 116.61 463.42 116.74 463.35 Z" />
</g>
<g id="#777443e0">
<path fill="#777443" opacity="0.88" d=" M 102.98 471.00 C 103.23 470.83 103.72 470.51 103.96 470.34 C 103.72 470.51 103.23 470.83 102.98 471.00 Z" />
<path fill="#777443" opacity="0.88" d=" M 86.00 479.09 C 86.65 477.84 87.67 477.47 89.06 477.98 C 88.37 479.15 87.35 479.52 86.00 479.09 Z" />
<path fill="#777443" opacity="0.88" d=" M 80.98 479.82 C 81.49 479.62 82.51 479.24 83.01 479.04 L 82.97 479.92 C 82.47 479.89 81.48 479.84 80.98 479.82 Z" />
</g>
<g id="#617556e1">
<path fill="#617556" opacity="0.88" d=" M 102.22 471.59 C 102.41 471.44 102.79 471.14 102.98 471.00 C 102.79 471.14 102.41 471.44 102.22 471.59 Z" />
<path fill="#617556" opacity="0.88" d=" M 99.13 473.63 C 99.30 473.52 99.65 473.29 99.82 473.18 C 99.65 473.29 99.30 473.52 99.13 473.63 Z" />
<path fill="#617556" opacity="0.88" d=" M 93.11 476.68 C 93.32 476.59 93.76 476.42 93.97 476.33 C 93.76 476.42 93.32 476.59 93.11 476.68 Z" />
<path fill="#617556" opacity="0.88" d=" M 90.00 478.11 C 90.50 477.83 91.51 477.26 92.02 476.97 C 91.51 477.26 90.50 477.83 90.00 478.11 Z" />
<path fill="#617556" opacity="0.88" d=" M 83.01 479.04 C 83.42 479.03 84.23 479.02 84.63 479.01 L 84.65 479.94 C 84.23 479.93 83.39 479.92 82.97 479.92 L 83.01 479.04 Z" />
</g>
</svg>
